<?xml version="1.0" encoding="iso-8859-1"?>
<!-- Generator: Adobe Illustrator 21.1.0, SVG Export Plug-In . SVG Version: 6.00 Build 0)  -->
<svg version="1.1" id="Layer_1" xmlns="http://www.w3.org/2000/svg" xmlns:xlink="http://www.w3.org/1999/xlink" x="0px" y="0px"
	 viewBox="0 0 2000 940" style="enable-background:new 0 0 2000 940;" xml:space="preserve">
<g transform="translate(0-530)">
	<path style="fill:#DE3F6B;" d="M408.6,23.244h82.2c128.4,12.6,247.2,77.2,335.2,170.2c182.6,191.6,283,462,515.4,604.6
		c168,103.2,403,18.8,485.6-155.4c42-0.8,84.2-0.8,126.2-0.6c-57.8,177-226.2,304.2-410.4,321.2H1475
		c-113.4-9.4-223.6-53-309.4-128.4c-124.6-105.6-204.6-250.4-301.4-379.4c-83.2-114-168.2-242.2-306-294
		c-170.2-63.8-378.2,36-440.2,205.6c-54.6,139.6-10.2,312.8,111.8,402.2c91.4,70.8,218.8,97.2,328.6,56c122-44,212.6-144,282-250
		c27.4,39.2,54,79,80.4,119c-108,136-257.8,252.8-436,269h-73c-224.6-15.6-419.8-206.4-435.2-431.8v-73.8
		C-8.8,232.644,183.8,39.644,408.6,23.244"/>
	<path style="fill:#DE3F6B;" d="M1470.4,23.244h68.2c226.6,14.8,419.4,209.4,438,434.8v115.6c-187,1.8-374.2,0.6-561.2,0.8
		c0.2-33.8,0.2-67.4,0-101.2c147.8-0.4,295.4,0.6,443-0.4c-10.4-59.8-24-121-59.4-171.6c-86.4-132-269-186-415-128.8
		c-116.4,43.2-204,137.8-271.6,238.8c-26-37.4-51.8-75.2-76.8-113.4C1142.2,159.844,1291,40.444,1470.4,23.244"/>
</g>
</svg>
